<?xml version="1.0" standalone="no"?>
<!DOCTYPE svg PUBLIC "-//W3C//DTD SVG 20010904//EN"
 "http://www.w3.org/TR/2001/REC-SVG-20010904/DTD/svg10.dtd">
<svg version="1.0" xmlns="http://www.w3.org/2000/svg"
 width="512.000000pt" height="512.000000pt" viewBox="0 0 512.000000 512.000000"
 preserveAspectRatio="xMidYMid meet">

<g transform="translate(0.000000,512.000000) scale(0.100000,-0.100000)"
fill="#000000" stroke="none">
<path d="M518 4758 c-102 -7 -161 -31 -215 -85 -52 -52 -78 -111 -102 -230
-63 -306 -16 -604 134 -864 l43 -76 -33 -99 c-19 -54 -41 -133 -50 -174 -22
-102 -31 -346 -16 -451 40 -283 182 -530 409 -712 62 -50 132 -27 134 42 1 27
-13 45 -99 129 -210 202 -303 423 -303 714 0 349 139 666 409 936 278 278 658
458 1106 523 117 17 432 17 560 0 397 -53 761 -212 1035 -454 180 -159 320
-353 401 -559 26 -66 65 -226 74 -300 l6 -58 -758 1 c-591 0 -754 3 -738 12
50 30 95 85 95 116 0 68 -75 94 -134 44 -83 -70 -171 -71 -254 -3 -47 39 -92
40 -121 4 -30 -38 -26 -59 18 -107 35 -37 93 -72 153 -91 15 -4 9 -14 -30 -53
-82 -82 -82 -83 -82 -566 0 -332 -3 -418 -12 -414 -162 71 -268 97 -393 97
-139 0 -313 -46 -438 -115 -58 -32 -60 -33 -96 -18 -105 45 -165 61 -191 51
-26 -9 -50 -44 -50 -72 0 -26 40 -63 87 -81 26 -10 49 -19 51 -20 2 -2 -13
-25 -34 -52 -20 -26 -46 -68 -57 -93 -26 -59 -28 -168 -4 -230 24 -63 38 -173
26 -213 -14 -50 -10 -246 6 -292 8 -22 15 -41 15 -41 0 -1 -14 -7 -30 -14 -44
-18 -113 -7 -155 25 -53 40 -81 89 -109 190 -14 50 -41 149 -60 220 -22 79
-56 171 -88 235 -44 91 -63 117 -137 190 -141 139 -251 179 -356 131 -88 -40
-129 -104 -130 -201 0 -89 29 -139 115 -200 102 -73 129 -127 200 -408 64
-255 128 -374 263 -489 233 -198 531 -201 806 -9 l65 45 35 -28 c107 -83 266
-157 421 -197 156 -40 317 -45 1180 -42 l795 3 61 28 c155 72 218 220 169 399
l-7 27 439 3 440 3 41 29 c26 18 51 47 67 79 l25 51 0 921 c0 1044 5 981 -80
1065 -77 78 -88 80 -510 80 l-367 0 -12 88 c-13 105 -43 229 -76 312 l-23 60
44 77 c130 227 188 514 154 758 -29 209 -73 309 -163 371 -61 42 -125 55 -277
55 -299 -1 -562 -95 -797 -286 l-31 -26 -99 30 c-221 68 -410 95 -668 95 -258
0 -447 -27 -668 -95 l-98 -30 -62 49 c-249 195 -550 285 -869 260z m373 -177
c126 -33 254 -92 357 -165 l43 -30 -98 -51 c-54 -28 -117 -63 -140 -78 -24
-15 -46 -27 -49 -27 -4 0 -30 18 -59 40 -125 96 -336 198 -509 245 l-58 16 23
26 c46 49 70 54 249 49 122 -3 185 -10 241 -25z m3093 9 c23 -11 47 -28 53
-39 12 -19 9 -22 -45 -36 -170 -47 -354 -134 -482 -229 -41 -31 -78 -56 -82
-56 -4 0 -31 15 -60 34 -29 18 -90 52 -135 75 -46 23 -83 45 -83 49 1 8 70 56
140 95 93 53 233 100 360 120 14 2 85 5 159 6 115 1 141 -2 175 -19z m-3509
-244 c124 -42 247 -102 334 -164 l63 -45 -100 -94 c-107 -100 -200 -208 -266
-310 -22 -35 -43 -63 -46 -63 -12 0 -79 156 -100 232 -38 141 -49 351 -23 456
7 29 17 28 138 -12z m3619 19 c3 -8 8 -61 12 -117 11 -171 -25 -360 -99 -521
l-32 -70 -49 74 c-82 123 -143 195 -258 303 l-110 103 50 36 c80 59 217 128
336 168 124 43 141 46 150 24z m811 -1491 c67 -32 65 -6 65 -783 l0 -701 -94
0 c-51 0 -107 -5 -125 -11 -54 -19 -68 -75 -29 -116 20 -21 29 -23 135 -23
l113 0 0 -122 c0 -99 -3 -125 -17 -140 -15 -17 -70 -18 -1330 -18 l-1313 0 0
140 0 140 1074 0 1075 0 20 26 c12 15 21 33 21 40 0 29 -25 64 -53 74 -20 7
-374 10 -1083 10 l-1054 0 0 705 c0 611 2 710 15 735 33 63 -49 59 1308 60
1108 0 1242 -2 1272 -16z m-3035 -955 c76 -12 159 -44 235 -90 l55 -33 0 -203
0 -203 -45 0 c-43 0 -46 2 -84 58 -47 69 -72 93 -131 124 -39 20 -59 23 -151
23 -101 0 -108 -1 -181 -37 -52 -26 -87 -52 -113 -83 -46 -57 -81 -75 -142
-75 -57 0 -105 26 -133 72 -51 84 -31 159 69 258 154 152 396 226 621 189z
m-1580 -195 l40 -27 -17 -27 c-10 -15 -30 -42 -46 -60 -24 -28 -30 -30 -45
-19 -76 58 -87 87 -51 133 27 34 67 34 119 0z m184 -186 c45 -78 76 -168 122
-346 26 -97 59 -205 74 -239 35 -76 102 -150 172 -189 47 -26 63 -29 139 -29
79 0 91 3 160 38 94 47 114 46 162 -8 l38 -43 -43 -30 c-230 -158 -454 -147
-643 30 -93 86 -138 183 -204 438 -28 107 -64 220 -79 250 l-27 55 45 57 c25
32 48 58 52 58 4 0 18 -19 32 -42z m1365 -102 c15 -8 33 -22 40 -30 12 -14 -2
-16 -145 -16 -146 0 -157 1 -136 15 60 43 186 59 241 31z m321 -336 l0 -140
-467 0 c-420 0 -468 2 -485 17 -15 14 -18 32 -18 118 0 102 7 126 40 138 8 3
221 6 473 6 l457 1 0 -140z m990 -325 c29 -30 34 -43 38 -95 4 -53 1 -65 -22
-100 -51 -78 -31 -75 -571 -75 -513 0 -552 3 -710 52 -136 43 -316 145 -390
223 l-29 30 825 0 825 0 34 -35z m788 6 c74 -75 55 -201 -39 -256 -31 -18 -55
-20 -316 -23 -156 -2 -283 -1 -283 1 0 2 9 26 21 52 17 39 20 60 16 124 -3 42
-8 88 -12 104 l-7 27 295 0 295 0 30 -29z"/>
<path d="M3508 2477 c-69 -29 -126 -73 -162 -125 -87 -127 -91 -289 -8 -412
71 -105 176 -162 300 -162 156 0 287 92 342 239 30 80 25 195 -11 273 -33 70
-109 146 -179 179 -80 37 -203 41 -282 8z m245 -159 c22 -14 51 -43 65 -65 24
-33 27 -48 27 -115 0 -69 -3 -81 -30 -119 -96 -137 -307 -117 -370 36 -44 103
-1 225 97 274 61 31 157 26 211 -11z"/>
<path d="M1575 3345 c-23 -22 -25 -32 -25 -110 0 -78 2 -88 25 -110 31 -32 69
-32 100 0 23 22 25 32 25 110 0 78 -2 88 -25 110 -13 14 -36 25 -50 25 -14 0
-37 -11 -50 -25z"/>
<path d="M3033 3358 c-28 -13 -43 -57 -43 -124 0 -115 56 -166 124 -113 25 19
26 25 26 114 0 89 -1 95 -26 114 -29 23 -48 25 -81 9z"/>
<path d="M1052 3029 c-114 -14 -150 -26 -165 -57 -18 -35 -8 -70 24 -94 23
-18 32 -18 85 -8 32 6 132 14 222 17 158 6 163 7 182 31 27 34 25 64 -6 93
-24 22 -33 24 -147 26 -67 0 -155 -3 -195 -8z"/>
<path d="M1321 2755 c-80 -31 -268 -129 -304 -158 -40 -33 -46 -79 -14 -111
15 -14 36 -26 49 -26 13 0 61 23 107 50 46 27 134 70 196 95 85 35 115 53 124
71 16 35 14 48 -10 78 -26 33 -62 33 -148 1z"/>
</g>
</svg>
